# Blender v2.90.0 OBJ File: 'Star.blend'
# www.blender.org
mtllib Star_obj.mtl
o Star_Plane.007
v -0.002280 0.000812 0.085895
v 0.317662 0.110878 0.009817
v -0.000748 -0.133525 0.009817
v -0.002280 0.339158 0.009817
v 0.122352 -0.042605 0.009817
v -0.192532 -0.278978 0.009817
v 0.075359 0.107056 0.009817
v 0.200401 -0.270109 0.009817
v -0.324382 0.104390 0.009817
v -0.073791 0.106545 0.009817
v -0.119762 -0.043626 0.009817
v -0.002280 0.000812 -0.085894
v 0.317662 0.110878 -0.009816
v -0.000748 -0.133525 -0.009816
v -0.002280 0.339158 -0.009816
v 0.122352 -0.042605 -0.009816
v -0.192532 -0.278978 -0.009816
v 0.075359 0.107056 -0.009816
v 0.200401 -0.270109 -0.009816
v -0.324382 0.104390 -0.009816
v -0.073791 0.106545 -0.009816
v -0.119762 -0.043626 -0.009816
vt 0.000000 0.000000
vt 0.000000 0.000000
vt 0.000000 0.000000
vt 0.000000 0.000000
vt 0.000000 0.000000
vt 0.000000 0.000000
vt 0.000000 0.000000
vt 0.000000 0.000000
vt 0.000000 0.000000
vt 0.000000 0.000000
vt 0.000000 0.000000
vt 0.000000 0.000000
vt 0.000000 0.000000
vt 0.000000 0.000000
vt 0.000000 0.000000
vt 0.000000 0.000000
vt 0.000000 0.000000
vt 0.000000 0.000000
vt 0.000000 0.000000
vt 0.000000 0.000000
vt 0.000000 0.000000
vt 0.000000 0.000000
vn -0.3190 -0.4698 0.8231
vn 0.3481 -0.4590 0.8174
vn 0.5592 0.1918 0.8066
vn 0.3490 -0.4441 0.8252
vn -0.0093 0.5866 0.8098
vn 0.5484 0.1834 0.8158
vn -0.5809 0.1786 0.7942
vn -0.0050 0.5818 0.8133
vn -0.3442 -0.4758 0.8094
vn -0.5817 0.1799 0.7933
vn -0.3190 -0.4698 -0.8231
vn 0.3481 -0.4590 -0.8174
vn 0.5592 0.1918 -0.8066
vn 0.3490 -0.4441 -0.8252
vn -0.0093 0.5866 -0.8098
vn 0.5484 0.1834 -0.8158
vn -0.5809 0.1786 -0.7942
vn -0.0050 0.5818 -0.8133
vn -0.3442 -0.4758 -0.8094
vn -0.5817 0.1799 -0.7933
vn 0.9459 0.3245 0.0000
vn 0.9483 0.3172 0.0000
vn -0.5861 -0.8102 -0.0000
vn -0.5618 -0.8273 -0.0000
vn -0.0158 0.9999 -0.0000
vn -0.0086 1.0000 0.0000
vn 0.6043 -0.7968 0.0000
vn 0.6179 -0.7863 -0.0000
vn -0.9559 0.2938 -0.0000
vn -0.9554 0.2954 -0.0000
usemtl Gold
s off
f 3/1/1 8/2/1 1/3/1
f 3/1/2 1/3/2 6/4/2
f 5/5/3 1/3/3 8/2/3
f 5/5/4 2/6/4 1/3/4
f 7/7/5 1/3/5 2/6/5
f 7/7/6 4/8/6 1/3/6
f 10/9/7 1/3/7 4/8/7
f 10/9/8 9/10/8 1/3/8
f 9/10/9 11/11/9 1/3/9
f 6/4/10 1/3/10 11/11/10
f 14/12/11 12/13/11 19/14/11
f 14/12/12 17/15/12 12/13/12
f 16/16/13 19/14/13 12/13/13
f 16/16/14 12/13/14 13/17/14
f 18/18/15 13/17/15 12/13/15
f 18/18/16 12/13/16 15/19/16
f 21/20/17 15/19/17 12/13/17
f 21/20/18 12/13/18 20/21/18
f 20/21/19 12/13/19 22/22/19
f 17/15/20 22/22/20 12/13/20
f 8/2/21 19/14/21 16/16/21 5/5/21
f 7/7/22 18/18/22 15/19/22 4/8/22
f 9/10/23 20/21/23 22/22/23 11/11/23
f 3/1/24 14/12/24 19/14/24 8/2/24
f 2/6/25 13/17/25 18/18/25 7/7/25
f 10/9/26 21/20/26 20/21/26 9/10/26
f 6/4/27 17/15/27 14/12/27 3/1/27
f 5/5/28 16/16/28 13/17/28 2/6/28
f 4/8/29 15/19/29 21/20/29 10/9/29
f 11/11/30 22/22/30 17/15/30 6/4/30
